<!-- Generated by IcoMoon.io -->
<svg version="1.1" xmlns="http://www.w3.org/2000/svg" width="24" height="24" viewBox="0 0 24 24">
<title>bubbles-many</title>
<path d="M21,5.65A5.66,5.66,0,1,1,15.31,0,5.65,5.65,0,0,1,21,5.65ZM15.31,2.83a2.83,2.83,0,1,0,2.83,2.82A2.82,2.82,0,0,0,15.31,2.83Z" transform="translate(-0.04)"/>
<path d="M11.52,14.53A5.74,5.74,0,1,1,5.78,8.79,5.74,5.74,0,0,1,11.52,14.53ZM5.78,11.66a2.87,2.87,0,1,0,2.87,2.87A2.86,2.86,0,0,0,5.78,11.66Z" transform="translate(-0.04)"/>
<path d="M24,18.34a5.67,5.67,0,1,1-5.66-5.67A5.67,5.67,0,0,1,24,18.34ZM18.34,15.5a2.84,2.84,0,1,0,2.83,2.84A2.84,2.84,0,0,0,18.34,15.5Z" transform="translate(-0.04)"/>
</svg>


